# xmcd
#
# Track frame offsets:
#	150
#	15558
#	27165
#	41200
#	55183
#	68138
#	87073
#	102180
#	117518
#	132420
#
# Disc length: 2013 seconds
#
# Revision: 1
# Processed by: cddbd v1.5.1PL0 Copyright (c) Steve Scherf et al.
# Submitted via: audiograbber 1.83.01
#
DISCID=8107db0a
DTITLE=Kenny Rogers - Pure Gold Of Kenny Rogers [CD2]
DYEAR=1996
DGENRE=Country
TTITLE0=For The Good Time
TTITLE1=Just Remember You're My Sunshine
TTITLE2=Are My Thoughts With You
TTITLE3=But You Know I Love You
TTITLE4=Sleep Comes Easy
TTITLE5=The King Of Oak Street
TTITLE6=Just Dropped In
TTITLE7=Tell It All Brother
TTITLE8=Heed The Call
TTITLE9=I Believe In Music
EXTD=
EXTT0=
EXTT1=
EXTT2=
EXTT3=
EXTT4=
EXTT5=
EXTT6=
EXTT7=
EXTT8=
EXTT9=
PLAYORDER=
